<?xml version="1.0" encoding="UTF-8"?>
<svg version="1.1" xmlns="http://www.w3.org/2000/svg" width="1414" height="2000">
<path d="M0 0 C466.62 0 933.24 0 1414 0 C1414 660 1414 1320 1414 2000 C947.38 2000 480.76 2000 0 2000 C0 1340 0 680 0 0 Z " fill="#CB6CE6" transform="translate(0,0)"/>
<path d="M0 0 C3.1875 1.4375 3.1875 1.4375 5 4 C7.0693623 16.83004625 -1.37937028 30.26491036 -7.125 41.25 C-14.91717734 55.3442566 -14.91717734 55.3442566 -17 71 C-12.72218449 70.49144851 -10.79302673 69.24794486 -7.75 66.25 C1.5435039 57.62142234 10.71925384 54.48087886 23.36328125 54.69140625 C30.01905958 55.25618228 33.88594283 57.54310314 38.375 62.375 C43.32520751 68.7510825 43.62624788 75.15983385 43 83 C42.10548082 86.73191547 40.82340328 90.27622683 39.5 93.875 C35.36835916 105.68486158 35.36835916 105.68486158 36 118 C37.7810088 120.77915659 38.98786206 122.58715426 42.078125 123.84765625 C48.02124278 124.43555459 52.18832718 123.65482382 57 120 C61.63346946 115.6518427 63.89634705 110.14148787 66.3125 104.375 C74.83654718 84.05915717 89.0628999 66.44530308 109.8046875 57.75390625 C115.98032794 55.63309023 121.32521072 54.63938491 127.8125 54.6875 C128.60640137 54.69313965 129.40030273 54.6987793 130.21826172 54.70458984 C140.09508368 54.90863137 147.71495996 57.07607186 155 64 C162.06867507 71.60864331 165.62603534 80.68480808 166 91 C166.0515625 92.10085938 166.103125 93.20171875 166.15625 94.3359375 C166.39157444 103.6900841 166.28688034 115.42623931 162 124 C169.30841207 123.13137725 174.77024386 121.34394296 180 116 C183.05609795 111.81361151 184.92153059 107.93366684 186.515625 103.01171875 C186.9622815 101.65924875 187.40923242 100.30687596 187.85644531 98.95458984 C188.19754333 97.90763947 188.19754333 97.90763947 188.54553223 96.83953857 C195.00301215 77.11295007 195.00301215 77.11295007 199.25 67.875 C199.53004883 67.23908936 199.81009766 66.60317871 200.09863281 65.94799805 C202.39020388 61.20575541 205.59121014 57.80933317 210 55 C214.82231428 53.8558316 219.43780798 54.50009855 224.125 56 C227.01242361 59.07991851 226.7954577 61.84097329 227 66 C231.96865684 65.52435538 234.66250727 64.13034635 238.5625 61.0625 C247.52237777 54.05981539 255.96952517 53.98615053 267 55 C275.84624986 56.99100233 282.62866866 63.45599466 287.375 70.9375 C291.57421049 77.96355331 292.38777343 85.24425516 292.375 93.25 C292.37628906 94.10174805 292.37757813 94.95349609 292.37890625 95.83105469 C292.22380936 105.46468655 290.22545447 114.66103927 288 124 C295.24273606 121.90039462 295.24273606 121.90039462 301.3125 117.5625 C301.96734375 116.95535156 302.6221875 116.34820313 303.296875 115.72265625 C305.1228361 113.92730959 305.1228361 113.92730959 307.0625 111.5 C309 110 309 110 312.5625 110.0625 C316 111 316 111 318 112.1875 C319.53589248 114.97130512 318.68108586 116.95732295 318 120 C313.03043356 131.8382172 304.47900688 142.98251491 293 149 C286.02107348 151.82520399 279.53576345 153.59104027 272 153 C271.73316406 153.58265625 271.46632813 154.1653125 271.19140625 154.765625 C264.41959907 167.46553879 251.44342615 175.22262954 238.5625 180.375 C230.60463487 181.77111669 221.07445376 182.60886965 214 178 C209.37911026 173.72024977 205.86206264 169.11479489 205.5859375 162.671875 C205.54726563 161.87265625 205.50859375 161.0734375 205.46875 160.25 C205.42234375 159.0125 205.42234375 159.0125 205.375 157.75 C205.33632813 156.90953125 205.29765625 156.0690625 205.2578125 155.203125 C205.16384164 153.13576618 205.08084436 151.06791373 205 149 C203.68 149.33 202.36 149.66 201 150 C199.2312788 156.78464582 197.62886578 163.59276853 196.16796875 170.44921875 C195.84052264 171.97331327 195.51304822 173.49740172 195.18554688 175.02148438 C194.68682777 177.34518925 194.19128949 179.66934005 193.70581055 181.99584961 C186.11740423 218.25156869 186.11740423 218.25156869 175.25 228.625 C170.0323859 231.81354195 165.01982612 231.56657187 159 231 C154.44542052 228.84256761 152.19602042 226.50762087 150 222 C143.77480316 203.32440947 157.35045687 179.53519903 164.32470703 162.55639648 C164.63156433 161.80782379 164.93842163 161.0592511 165.25457764 160.28799438 C165.83905561 158.86599082 166.42700951 157.44540969 167.01885986 156.02645874 C168.5026246 152.62682636 168.5026246 152.62682636 169 149 C168.32195312 149.27714844 167.64390625 149.55429687 166.9453125 149.83984375 C162.1129823 151.7205706 158.15323656 153.14542109 152.9375 153.0625 C149.42561373 153.28925171 148.23428825 153.78910285 145.57421875 156.18359375 C143.90241606 158.10603353 142.25348407 160.0485426 140.625 162.0078125 C133.34417061 170.30709124 124.34767994 175.46156922 114 179 C112.7625 179.433125 111.525 179.86625 110.25 180.3125 C98.66799292 182.80299421 86.68044186 181.70579453 76.5390625 175.4921875 C68.5676198 169.79829985 63.79277578 162.30925261 61 153 C60.8125 150 60.8125 150 61 148 C60.34 148 59.68 148 59 148 C58.76410156 148.69480469 58.52820313 149.38960937 58.28515625 150.10546875 C56.76094988 153.53840772 54.72941189 156.36718266 52.4375 159.3125 C51.99349854 159.88355469 51.54949707 160.45460938 51.09204102 161.04296875 C43.59766153 170.46523573 34.172873 178.76830662 22 181 C14.76078863 181.68767861 8.6562758 181.97905408 2.6484375 177.4921875 C-2.75310499 172.60263956 -5.95945154 167.88852612 -6.37109375 160.48046875 C-6.64653587 148.62858764 -5.21379619 139.02091526 -1 128 C3.51747687 116.32026259 3.51747687 116.32026259 4 104 C2.87082009 102.19342404 2.87082009 102.19342404 1 101 C-4.0202987 100.12519128 -8.62263956 100.36429518 -13.25 102.5 C-23.33557578 111.66870525 -29.40043546 122.47177274 -30.18579102 136.26245117 C-30.30762496 141.22981469 -30.37013513 146.195269 -30.390625 151.1640625 C-30.56302859 160.3206089 -31.50397257 168.69719701 -37.4375 176 C-43.97229558 181.10032826 -48.77900534 181.98128583 -57 181 C-61.89784082 179.37900642 -65.18499136 176.27464275 -68 172 C-79.00182574 149.41730505 -65.78147031 119.33322569 -58.3515625 97.703125 C-57.51519517 95.27913943 -56.67735456 92.85566827 -55.83898926 90.43237305 C-55.00415744 88.01205313 -54.17618809 85.58949811 -53.35058594 83.16601562 C-28.78243843 11.0808083 -28.78243843 11.0808083 -13.0234375 0.8125 C-8.76582502 -0.89712046 -4.46809232 -0.7159963 0 0 Z " fill="#FEFDFE" transform="translate(536,867)"/>
<path d="M0 0 C6.49677587 5.45781779 11.14179638 11.92401921 12.15722656 20.55517578 C13.05178629 32.65986296 11.42648063 43.1119378 3.5703125 52.7734375 C-6.48561305 64.09832508 -6.48561305 64.09832508 -13.0703125 65.05859375 C-16.89904676 64.50023667 -18.49539461 63.49894315 -21.0703125 60.62109375 C-21.55731725 57.35120472 -21.38248143 55.34017549 -20.06640625 52.30859375 C-18.93456846 49.25485101 -18.73640289 46.80884326 -18.6953125 43.55859375 C-18.66695313 42.53636719 -18.63859375 41.51414062 -18.609375 40.4609375 C-19.18144208 36.93642255 -20.32946087 35.8270208 -23.0703125 33.62109375 C-26.26999824 32.02125088 -29.58989177 32.25814485 -33.0703125 32.62109375 C-37.24937105 34.19809698 -39.77803867 35.76042204 -42.0703125 39.62109375 C-44.65425624 47.37292498 -44.28207863 55.92930436 -40.86645508 63.32617188 C-36.66996388 71.51708941 -31.62930555 79.24832718 -26.73217773 87.03125 C-16.22274194 103.82905542 -9.68017966 120.91261457 -14.2578125 140.87109375 C-17.09030108 150.62597264 -20.93385603 159.50021106 -27.0703125 167.62109375 C-27.54726563 168.28625 -28.02421875 168.95140625 -28.515625 169.63671875 C-36.47301923 179.79339279 -50.3631344 187.75734129 -63.0703125 189.62109375 C-81.59312827 191.25208759 -98.8128804 190.98487015 -114.0625 179.30859375 C-116.57208745 177.1993685 -118.87565694 175.05959993 -121.0703125 172.62109375 C-121.53824219 172.15703125 -122.00617188 171.69296875 -122.48828125 171.21484375 C-134.93272111 158.16257778 -135.6362247 140.8433928 -135.3203125 123.85546875 C-134.78645512 108.85407636 -128.9378873 96.88688102 -118.0703125 86.62109375 C-109.82121577 79.9445673 -102.5520165 78.41811155 -92.05859375 78.2578125 C-88.79964471 78.65399846 -87.45159363 79.4252165 -85.0703125 81.62109375 C-85.44547929 87.87387363 -87.08265431 90.13497828 -91.0703125 94.62109375 C-93.46491978 101.34949948 -93.07240322 110.12131734 -90.4453125 116.68359375 C-87.892838 121.63412258 -84.29425114 123.87978087 -79.0703125 125.62109375 C-72.41186196 126.18044662 -65.91912749 126.17026103 -60.0703125 122.62109375 C-55.68369154 118.82756185 -53.46040089 114.29907004 -52.8515625 108.55859375 C-52.39701333 97.6494136 -57.83304941 88.97917972 -62.92041016 79.71826172 C-64.93059043 76.05213676 -66.91024485 72.37005833 -68.8828125 68.68359375 C-69.2555127 67.99845703 -69.62821289 67.31332031 -70.01220703 66.60742188 C-77.17706212 53.2191743 -79.99662249 37.00077826 -75.9453125 22.05859375 C-71.53090038 10.34107585 -63.94674946 1.1867641 -52.5703125 -4.31640625 C-35.7466335 -11.11148551 -15.02284991 -11.03326523 0 0 Z " fill="#FEFDFE" transform="translate(471.0703125,868.37890625)"/>
<path d="M0 0 C1.11632812 -0.020625 2.23265625 -0.04125 3.3828125 -0.0625 C13.61145095 -0.11018596 25.10150747 1.16555427 32.75 8.734375 C38.43625655 15.26064672 37.71000472 21.98664252 37.25 30.25 C36.64059547 34.29990098 35.74373774 38.24043166 34.75048828 42.21240234 C34.19971427 44.45472423 33.68989051 46.70425952 33.18359375 48.95703125 C30.3288244 61.51656666 26.84709205 73.84593771 23.16162109 86.18408203 C21.94660261 90.27037077 20.75816573 94.36417205 19.57055664 98.45849609 C18.40837514 102.46138718 17.23649133 106.46141155 16.06445312 110.46142578 C15.31313685 113.03382821 14.56999861 115.60845642 13.828125 118.18359375 C11.07371592 127.65763554 8.06306347 137.04333117 4.89981079 146.38858032 C4.26996234 148.25339674 3.64887335 150.12116458 3.02807617 151.98901367 C-2.09690351 166.93987325 -8.59997444 179.35412938 -22.75 187.25 C-32.79654661 191.58480438 -43.62312009 193.40631228 -54.125 189.625 C-61.25499069 186.30307252 -66.20818922 182.19149663 -69.0859375 174.734375 C-71.08162428 167.26815859 -70.39943379 160.6867766 -66.6015625 153.9609375 C-60.46842439 144.9811952 -52.86543246 137.27550789 -45.125 129.6875 C-20.08755764 105.04116911 -6.91232871 72.21845688 6.25 40.25 C-11.99360673 39.30907513 -11.99360673 39.30907513 -28.25 46.6875 C-32.45281025 50.9953805 -34.17144672 54.18096201 -34.125 60.25 C-34.13273438 61.260625 -34.14046875 62.27125 -34.1484375 63.3125 C-33.56625266 67.60468627 -31.77409141 70.22590859 -28.75 73.25 C-26.68125966 73.8925235 -26.68125966 73.8925235 -24.75 74.25 C-24.01884758 82.03271127 -25.35888854 86.82335874 -29.75 93.25 C-30.306875 94.136875 -30.86375 95.02375 -31.4375 95.9375 C-38.84583345 103.34583345 -48.81657651 107.23082581 -59.1875 107.6875 C-67.48364903 107.41761113 -75.18415083 104.70655977 -81.25390625 98.95703125 C-83.86310861 95.9799518 -85.94117944 92.76602199 -87.75 89.25 C-88.11867188 88.56292969 -88.48734375 87.87585938 -88.8671875 87.16796875 C-92.05500617 76.63124068 -91.05553921 61.30136557 -86.75 51.25 C-86.27433594 50.13625 -85.79867187 49.0225 -85.30859375 47.875 C-75.87697196 27.56747095 -59.92754981 14.97466251 -39.4453125 6.56640625 C-26.51401871 1.9598037 -13.69364444 0.06238562 0 0 Z " fill="#FEFDFE" transform="translate(923.75,859.75)"/>
<path d="M0 0 C3.19201342 5.50347142 2.41580149 10.31408692 1.11328125 16.3828125 C-0.80363117 23.35487369 -3.19184195 28.86451188 -8.1875 34.125 C-8.71214844 34.67800781 -9.23679687 35.23101563 -9.77734375 35.80078125 C-19.68015282 45.19097432 -32.09938595 45.49951347 -44.9375 45.33203125 C-51.07581311 45.15612671 -56.37809863 44.10485495 -62.1875 42.125 C-63.93715425 41.54972861 -65.6871926 40.97562481 -67.4375 40.40234375 C-71.96777291 38.91015035 -76.4853985 37.38381536 -80.99609375 35.83349609 C-87.31707411 33.78988145 -93.48139053 33.86735692 -100.07470703 33.82983398 C-101.46901666 33.81839465 -102.86328533 33.79807241 -104.25732422 33.76831055 C-118.20383108 33.47118787 -131.00738356 36.24626573 -141.9375 45.4375 C-142.68 46.324375 -143.4225 47.21125 -144.1875 48.125 C-144.65285156 48.67671875 -145.11820313 49.2284375 -145.59765625 49.796875 C-149.83049548 55.50354405 -150.12891779 61.18823736 -149.1875 68.125 C-147.98674462 71.451971 -146.67822189 72.7594405 -143.5625 74.375 C-142.44875 74.9525 -141.335 75.53 -140.1875 76.125 C-139.54320725 83.53436659 -141.54140049 89.66091537 -146.0703125 95.58984375 C-153.05501929 103.11279855 -161.49600921 107.40429195 -171.73046875 108.36328125 C-180.73677747 108.61604324 -187.59444797 106.55885668 -194.5625 100.75 C-201.24678859 94.4153925 -205.16081725 87.03058189 -205.65625 77.8046875 C-205.69054825 75.87006763 -205.7001327 73.93488263 -205.6875 72 C-205.68177979 70.98389648 -205.67605957 69.96779297 -205.67016602 68.92089844 C-205.2561123 51.39401855 -196.65118926 37.14007447 -184.1875 25.125 C-163.88222393 7.59526526 -137.43055715 -1.13641168 -110.7331543 -0.97265625 C-109.8230661 -0.97119598 -108.91297791 -0.96973572 -107.97531128 -0.9682312 C-106.01162352 -0.96444475 -104.04793911 -0.95834908 -102.08426476 -0.95016479 C-98.96793815 -0.93731954 -95.85165449 -0.9308644 -92.73530579 -0.92602539 C-84.99514548 -0.91270355 -77.25502613 -0.88852547 -69.51489258 -0.86462402 C-62.96890805 -0.84481808 -56.42293899 -0.82920757 -49.87693214 -0.81906128 C-46.82219771 -0.81262738 -43.76752787 -0.80011898 -40.71281433 -0.78735352 C-1.16205518 -0.68356187 -1.16205518 -0.68356187 0 0 Z " fill="#FEFDFE" transform="translate(1163.1875,853.875)"/>
<path d="M0 0 C2.4375 1.625 2.4375 1.625 3.4375 3.625 C4.10671412 10.11930159 2.89050298 15.64037224 0.8125 21.75 C0.51255127 22.65886963 0.21260254 23.56773926 -0.09643555 24.50415039 C-1.22815627 27.88626992 -2.39225597 31.25600961 -3.5625 34.625 C-3.93299469 35.69527435 -3.93299469 35.69527435 -4.31097412 36.78717041 C-35.70751477 127.40402443 -35.70751477 127.40402443 -71.98046875 145.3125 C-88.86638109 152.97284845 -106.68031948 154.15700588 -124.2421875 147.62890625 C-134.20067335 143.14603645 -142.31780478 135.75920983 -146.5625 125.625 C-147.10970703 124.32369141 -147.10970703 124.32369141 -147.66796875 122.99609375 C-148.88320087 118.41641988 -148.89177767 114.09288083 -148.875 109.375 C-148.89111328 108.48425781 -148.90722656 107.59351563 -148.92382812 106.67578125 C-148.93192923 95.51246293 -145.50456737 86.37629343 -138.5625 77.625 C-131.7556993 71.02264384 -125.0514008 67.27479914 -115.48046875 67.32421875 C-113.5625 67.625 -113.5625 67.625 -111.5625 69.625 C-111.07568262 71.2148949 -110.64472495 72.82227582 -110.25 74.4375 C-108.58084163 80.22947953 -106.12330787 83.07090733 -100.94921875 86.2109375 C-92.83940689 89.59704118 -82.1446201 89.26445845 -74.0078125 86.04296875 C-49.42520377 74.76692921 -40.73128736 51.45119799 -31.875 27.625 C-30.58810156 24.16333554 -29.29126251 20.70563832 -27.98828125 17.25 C-27.70277908 16.47180908 -27.41727692 15.69361816 -27.12312317 14.8918457 C-24.6877788 8.43802619 -22.05886555 2.62528251 -15.62109375 -0.68359375 C-10.27499387 -2.47915291 -5.18373646 -2.00074039 0 0 Z " fill="#FEFDFE" transform="translate(1081.5625,907.375)"/>
<path d="M0 0 C3.23307772 1.61956043 5.36183145 3.7236629 7 7 C7.76686277 15.75993246 6.75414742 22.69734005 1.375 29.75 C-3.04706369 34.54514103 -8.30862119 36.63506728 -14.6875 37.5 C-19.66489427 36.7486952 -22.53165209 34.6151827 -25.875 30.9375 C-27.99065943 25.41327816 -27.90123393 19.91232076 -26.15625 14.2734375 C-21.02461524 2.7966057 -12.19683683 -1.46298434 0 0 Z " fill="#CB6EE6" transform="translate(663,959)"/>
<path d="M0 0 C4.61039944 1.76568489 6.77713731 4.63660288 9 9 C9.963532 16.34693148 7.77323909 21.97257132 3.609375 28.01953125 C0.55127143 31.84216071 -2.2400992 34.50151271 -7 36 C-12.47909282 36.59636384 -17.23251583 36.98979114 -22.125 34.25 C-25.78260953 29.86086856 -26.51213562 26.35603451 -26.37109375 20.72265625 C-25.28139179 12.727685 -20.8726844 7.23688503 -14.76953125 2.27734375 C-10.26070647 -0.97737082 -5.37608772 -0.4207373 0 0 Z " fill="#CB6EE6" transform="translate(782,959)"/>
</svg>
